# xmcd CD database file
#
# Track frame offsets:
#	200
#	13607
#	32292
#	44815
#	59232
#	74057
#	84642
#	98647
#	115900
#	131665
#	147492
#	162537
#	176660
#	197675
#	212150
#	228937
#
# Disc length: 3242 seconds
#
# Revision: 1
# Processed by: cddbd v1.5PL3 Copyright (c) Steve Scherf et al.
# Submitted via: CDex 1.51
#
DISCID=f20ca810
DTITLE=Warren Storm - Night After Night
DYEAR=1992
DGENRE=Blues
TTITLE0=(The Freeze)  If You Don't Want Me To
TTITLE1=I Need Somebody Bad Tonight
TTITLE2=Send Me Some Lovin'
TTITLE3=My House of Memories
TTITLE4=I'm a Fool to Care
TTITLE5=The Prisoner's Song
TTITLE6=What am I Living For¿
TTITLE7=Those Eyes
TTITLE8=I got Loaded
TTITLE9=Those Lonely, Lonely Nights
TTITLE10=These Arms of Mine
TTITLE11=Bad Moon Rising
TTITLE12=Touch Me
TTITLE13=Slowdown 
TTITLE14=Don't Toss Us Away
TTITLE15=I Almost Called Your Name
EXTD=YEAR: 1992
EXTT0=
EXTT1=
EXTT2=
EXTT3=
EXTT4=
EXTT5=
EXTT6=
EXTT7=
EXTT8=
EXTT9=
EXTT10=
EXTT11=
EXTT12=
EXTT13=
EXTT14=
EXTT15=
PLAYORDER=
